<svg xmlns="http://www.w3.org/2000/svg" width="60.268" height="64.004" viewBox="0 0 60.268 64.004"><g transform="translate(-1.862 0.005)"><path d="M53.4,39.31,42.82,33.55l1.26-8.87,10.58,5.75Z" fill="#385997"/><path d="M46.85,60.3,36.27,54.54l.03-20.08,10.59,5.76Z" fill="#385997"/><path d="M46.89,40.22,36.3,34.46l6.52-.91L53.4,39.31Z" fill="#385997"/><path d="M46.91,31.52,36.32,25.77l7.76-1.09,10.58,5.75Z" fill="#fff"/><path d="M54.37,22.45,43.78,16.69l.01-8.71,10.59,5.76Z" fill="#385997"/><path d="M49.1,23.19,38.51,17.43l5.27-.74,10.59,5.76Z" fill="#385997"/><path d="M38.8,61.44,28.21,55.68l.04-20.08,10.58,5.76Z" fill="#fff"/><path d="M46.91,31.52,36.32,25.77l.01-6.37,10.59,5.76Z" fill="#385997"/><path d="M38.51,17.43a2.8,2.8,0,0,1,.61.33l4.68,2.55,5.3,2.88c-.52.07-2.18.42-2.18,2L36.33,19.4C36.34,17.85,38,17.5,38.51,17.43Z" fill="#385997"/><path d="M49.11,14.48,38.52,8.72l5.27-.74,10.59,5.76Z" fill="#fff"/><path d="M32.32,42.27,21.73,36.51l6.52-.91,10.58,5.76Z" fill="#385997"/><path d="M38.85,32.66,28.26,26.9l.01-6.36L38.86,26.3Z" fill="#fff"/><path d="M32.32,42.27,21.73,36.51l.02-8.7,10.59,5.76Z" fill="#fff"/><path d="M32.34,33.57,21.75,27.81l6.51-.91,10.59,5.76Z" fill="#fff"/><path d="M54.38,13.74v8.71l-5.26.74c-.52.07-2.18.42-2.18,2v6.37l7.75-1.09L53.4,39.31l-6.51.91V60.3L38.8,61.44V41.36l-6.51.91v-8.7l6.51-.91V26.3A12,12,0,0,1,49.11,14.48Z" fill="#fff"/><path d="M38.86,26.3,28.27,20.54A12,12,0,0,1,38.52,8.72l10.59,5.76A12,12,0,0,0,38.86,26.3Z" fill="#fff"/><path d="M47.52.88a7.44,7.44,0,0,0-4.64-.8L10.63,4.61c-4.79.68-8.69,5.42-8.7,10.6L1.87,50a8.11,8.11,0,0,0,4,7.35l10.58,5.76a8.14,8.14,0,0,1-4-7.35L12.52,21c0-5.17,3.91-9.92,8.7-10.59L53.47,5.84a7.42,7.42,0,0,1,4.63.8Z" fill="#263762"/><path d="M53.47,5.84c4.8-.67,8.67,3,8.66,8.15l-.06,34.8c0,5.19-3.9,9.92-8.7,10.6l-6.52.91V40.22l6.51-.91,1.26-8.87-7.75,1.09V25.16c0-1.55,1.66-1.9,2.18-2l5.26-.74V13.71l-5.27.74A12,12,0,0,0,38.86,26.3v6.36l-6.51.91v8.7l6.51-.91V61.44L21.12,63.92c-4.79.67-8.67-3-8.67-8.15L12.52,21c0-5.17,3.91-9.92,8.7-10.59Z" fill="#385997"/></g></svg>