<svg xmlns="http://www.w3.org/2000/svg" xmlns:xlink="http://www.w3.org/1999/xlink" width="811.125" height="498.62" viewBox="0 0 811.125 498.62"><defs><filter id="a" x="18.338" y="269.718" width="700.804" height="228.902" filterUnits="userSpaceOnUse"><feOffset dy="-3" input="SourceAlpha"/><feGaussianBlur stdDeviation="3" result="b"/><feFlood flood-opacity="0.161"/><feComposite operator="in" in2="b"/><feComposite in="SourceGraphic"/></filter><filter id="c" x="544.665" y="0" width="266.46" height="153.381" filterUnits="userSpaceOnUse"><feOffset dy="3" input="SourceAlpha"/><feGaussianBlur stdDeviation="3" result="d"/><feFlood flood-opacity="0.161"/><feComposite operator="in" in2="d"/><feComposite in="SourceGraphic"/></filter></defs><g transform="translate(-922.015 -453.289)"><path d="M1194.08,557.469c.49-2.706-25.918-162.559-25.918-162.559l18.438-18.267,120.39,180.826Z" transform="translate(-246.147 385.531)" fill="#7b118b"/><path d="M1202.827,806.876c.655-6.555-34.665-393.716-34.665-393.716l52.157-19.839,101.008,203.36Z" transform="translate(310.596 138.316)" fill="#7b118b"/><g transform="matrix(1, 0, 0, 1, 922.02, 453.29)" filter="url(#a)"><path d="M81.326,61.283,682.8,0,590.075,210.9H0Z" transform="translate(27.34 281.72)" fill="#a310ba"/></g><g transform="matrix(1, 0, 0, 1, 922.02, 453.29)" filter="url(#c)"><path d="M0,83.683,244.179,0,24.305,126.936Z" transform="matrix(1, -0.03, 0.03, 1, 553.67, 14.52)" fill="#a310ba"/></g><path d="M3.7-29.8H7.869V0H3.7ZM32.508-2.881q1.419,0,2.515-.065a10.98,10.98,0,0,0,1.828-.237V-9.847a5.125,5.125,0,0,0-1.4-.365,15.544,15.544,0,0,0-2.343-.151,15.141,15.141,0,0,0-1.913.129,5.9,5.9,0,0,0-1.849.537,3.96,3.96,0,0,0-1.4,1.118,2.936,2.936,0,0,0-.559,1.871A3.212,3.212,0,0,0,28.767-3.72,7.162,7.162,0,0,0,32.508-2.881Zm-.344-20.038a11.59,11.59,0,0,1,4.063.624,6.585,6.585,0,0,1,2.666,1.763,6.676,6.676,0,0,1,1.44,2.709,13.081,13.081,0,0,1,.43,3.462V-.387l-1.44.237Q38.4,0,37.238.129T34.722.366q-1.354.108-2.687.108A14.727,14.727,0,0,1,28.552.086,7.79,7.79,0,0,1,25.8-1.14a5.612,5.612,0,0,1-1.806-2.215,7.751,7.751,0,0,1-.645-3.311A6.372,6.372,0,0,1,24.1-9.847,6,6,0,0,1,26.144-12a9.459,9.459,0,0,1,3.01-1.2,16.413,16.413,0,0,1,3.612-.387q.6,0,1.247.064t1.226.172q.58.108,1.01.194t.6.129v-1.118a8.992,8.992,0,0,0-.215-1.956,4.475,4.475,0,0,0-.774-1.72,3.919,3.919,0,0,0-1.527-1.2,5.985,5.985,0,0,0-2.515-.451,18.892,18.892,0,0,0-3.462.279,12.1,12.1,0,0,0-2.214.58l-.473-3.311a12.323,12.323,0,0,1,2.58-.666A22.284,22.284,0,0,1,32.164-22.919Zm15.222,1.2q1.376-.344,3.634-.731a31.229,31.229,0,0,1,5.224-.387,9.831,9.831,0,0,1,3.612.58,6.339,6.339,0,0,1,2.451,1.7q.3-.215.946-.6a10.416,10.416,0,0,1,1.591-.753,16.714,16.714,0,0,1,2.107-.645,10.635,10.635,0,0,1,2.494-.279,10.128,10.128,0,0,1,4.214.752,6.049,6.049,0,0,1,2.559,2.128,8.278,8.278,0,0,1,1.247,3.268,24.618,24.618,0,0,1,.323,4.128V0h-4V-11.7a25.591,25.591,0,0,0-.194-3.4,6.568,6.568,0,0,0-.731-2.365,3.35,3.35,0,0,0-1.462-1.4,5.45,5.45,0,0,0-2.387-.451,8.86,8.86,0,0,0-3.332.538A6.538,6.538,0,0,0,63.9-17.8a14.764,14.764,0,0,1,.516,2.451,21.845,21.845,0,0,1,.172,2.8V0h-4V-11.7a23.067,23.067,0,0,0-.215-3.4,6.855,6.855,0,0,0-.753-2.365,3.35,3.35,0,0,0-1.462-1.4,5.335,5.335,0,0,0-2.344-.451q-.6,0-1.29.043t-1.311.108q-.624.064-1.14.15t-.688.129V0h-4ZM101.91-2.881q1.419,0,2.515-.065a10.98,10.98,0,0,0,1.827-.237V-9.847a5.125,5.125,0,0,0-1.4-.365,15.544,15.544,0,0,0-2.343-.151,15.141,15.141,0,0,0-1.913.129A5.9,5.9,0,0,0,98.75-9.7a3.96,3.96,0,0,0-1.4,1.118,2.936,2.936,0,0,0-.559,1.871A3.212,3.212,0,0,0,98.169-3.72,7.162,7.162,0,0,0,101.91-2.881Zm-.344-20.038a11.59,11.59,0,0,1,4.063.624,6.585,6.585,0,0,1,2.666,1.763,6.676,6.676,0,0,1,1.44,2.709,13.081,13.081,0,0,1,.43,3.462V-.387l-1.44.237q-.924.15-2.086.28t-2.516.237q-1.354.108-2.687.108A14.727,14.727,0,0,1,97.954.086,7.79,7.79,0,0,1,95.2-1.14,5.612,5.612,0,0,1,93.4-3.354a7.751,7.751,0,0,1-.645-3.311A6.372,6.372,0,0,1,93.5-9.847,6,6,0,0,1,95.546-12a9.459,9.459,0,0,1,3.01-1.2,16.413,16.413,0,0,1,3.612-.387q.6,0,1.247.064t1.226.172q.581.108,1.01.194t.6.129v-1.118a8.992,8.992,0,0,0-.215-1.956,4.475,4.475,0,0,0-.774-1.72,3.919,3.919,0,0,0-1.526-1.2,5.985,5.985,0,0,0-2.516-.451,18.893,18.893,0,0,0-3.462.279,12.1,12.1,0,0,0-2.215.58l-.473-3.311a12.323,12.323,0,0,1,2.58-.666A22.284,22.284,0,0,1,101.566-22.919Zm15.222,1.2q1.376-.344,3.655-.731a31.622,31.622,0,0,1,5.246-.387,11.33,11.33,0,0,1,4.429.752,6.928,6.928,0,0,1,2.817,2.107,8.149,8.149,0,0,1,1.483,3.247,18.835,18.835,0,0,1,.43,4.171V0h-4V-11.7a19.091,19.091,0,0,0-.279-3.526,5.962,5.962,0,0,0-.924-2.365,3.659,3.659,0,0,0-1.72-1.312,7.556,7.556,0,0,0-2.666-.408q-.645,0-1.333.043t-1.312.108q-.624.064-1.118.15t-.709.129V0h-4ZM158.971-2.881q1.419,0,2.516-.065a10.98,10.98,0,0,0,1.827-.237V-9.847a5.125,5.125,0,0,0-1.4-.365,15.544,15.544,0,0,0-2.344-.151,15.141,15.141,0,0,0-1.913.129,5.9,5.9,0,0,0-1.849.537,3.96,3.96,0,0,0-1.4,1.118,2.936,2.936,0,0,0-.559,1.871A3.212,3.212,0,0,0,155.23-3.72,7.162,7.162,0,0,0,158.971-2.881Zm-.344-20.038a11.59,11.59,0,0,1,4.063.624,6.586,6.586,0,0,1,2.666,1.763,6.676,6.676,0,0,1,1.44,2.709,13.081,13.081,0,0,1,.43,3.462V-.387l-1.44.237q-.924.15-2.085.28t-2.516.237q-1.354.108-2.687.108a14.727,14.727,0,0,1-3.483-.387,7.79,7.79,0,0,1-2.752-1.226,5.611,5.611,0,0,1-1.806-2.215,7.751,7.751,0,0,1-.645-3.311,6.372,6.372,0,0,1,.753-3.182A6,6,0,0,1,152.607-12a9.459,9.459,0,0,1,3.01-1.2,16.413,16.413,0,0,1,3.612-.387q.6,0,1.247.064t1.225.172q.581.108,1.011.194t.6.129v-1.118A8.993,8.993,0,0,0,163.1-16.1a4.475,4.475,0,0,0-.774-1.72,3.919,3.919,0,0,0-1.527-1.2,5.985,5.985,0,0,0-2.515-.451,18.892,18.892,0,0,0-3.462.279,12.1,12.1,0,0,0-2.215.58l-.473-3.311a12.323,12.323,0,0,1,2.58-.666A22.284,22.284,0,0,1,158.627-22.919Zm23.478.086q.516,0,1.182.064t1.312.172q.645.108,1.182.215a7.215,7.215,0,0,1,.8.193l-.688,3.483a13.4,13.4,0,0,0-1.569-.408,13.757,13.757,0,0,0-2.817-.236,10.474,10.474,0,0,0-2.214.236q-1.1.237-1.441.323V0h-4V-21.414a27.183,27.183,0,0,1,3.526-.967A22.652,22.652,0,0,1,182.1-22.833Zm12.083.473h8.471v3.354h-8.471v10.32a12.4,12.4,0,0,0,.258,2.773,4.166,4.166,0,0,0,.774,1.72,2.784,2.784,0,0,0,1.29.881,5.717,5.717,0,0,0,1.806.258,8.494,8.494,0,0,0,2.9-.408q1.1-.409,1.527-.581l.774,3.311a14.847,14.847,0,0,1-2.107.753,11.981,11.981,0,0,1-3.44.452,10.428,10.428,0,0,1-3.762-.581,5.479,5.479,0,0,1-2.387-1.742,6.974,6.974,0,0,1-1.268-2.86,18.849,18.849,0,0,1-.365-3.935V-28.6l4-.688ZM211.732,0h-4V-22.36h4Zm-2.021-26.4a2.566,2.566,0,0,1-1.827-.71,2.5,2.5,0,0,1-.753-1.913,2.5,2.5,0,0,1,.753-1.913,2.566,2.566,0,0,1,1.827-.71,2.566,2.566,0,0,1,1.827.71,2.5,2.5,0,0,1,.753,1.913,2.5,2.5,0,0,1-.753,1.913A2.566,2.566,0,0,1,209.711-26.4Zm14.1,23.521a7.871,7.871,0,0,0,3.633-.645,2.181,2.181,0,0,0,1.182-2.064,2.74,2.74,0,0,0-1.161-2.322,18.405,18.405,0,0,0-3.827-1.935q-1.29-.516-2.473-1.053a8.671,8.671,0,0,1-2.043-1.269,5.536,5.536,0,0,1-1.376-1.763,5.635,5.635,0,0,1-.516-2.537,5.7,5.7,0,0,1,2.193-4.709,9.358,9.358,0,0,1,5.977-1.742,16.744,16.744,0,0,1,1.892.108q.946.108,1.763.258t1.44.323q.623.172.967.3l-.731,3.44a10.1,10.1,0,0,0-2.021-.71,13.041,13.041,0,0,0-3.311-.365,6.114,6.114,0,0,0-2.924.666,2.209,2.209,0,0,0-1.247,2.086,2.848,2.848,0,0,0,.279,1.29,2.977,2.977,0,0,0,.86,1.011,7.072,7.072,0,0,0,1.441.838q.86.387,2.064.817,1.591.6,2.838,1.183a8.884,8.884,0,0,1,2.129,1.354A5.193,5.193,0,0,1,232.2-8.45a6.783,6.783,0,0,1,.473,2.688,5.332,5.332,0,0,1-2.3,4.687A11.453,11.453,0,0,1,223.815.516a17.137,17.137,0,0,1-4.644-.495q-1.677-.495-2.279-.753l.731-3.44q.688.258,2.193.774A12.653,12.653,0,0,0,223.815-2.881ZM241.531-22.36H250v3.354h-8.471v10.32a12.4,12.4,0,0,0,.258,2.773,4.166,4.166,0,0,0,.774,1.72,2.784,2.784,0,0,0,1.29.881,5.717,5.717,0,0,0,1.806.258,8.494,8.494,0,0,0,2.9-.408q1.1-.409,1.527-.581l.774,3.311a14.846,14.846,0,0,1-2.107.753,11.981,11.981,0,0,1-3.44.452,10.428,10.428,0,0,1-3.762-.581,5.479,5.479,0,0,1-2.387-1.742,6.974,6.974,0,0,1-1.268-2.86,18.849,18.849,0,0,1-.365-3.935V-28.6l4-.688Z" transform="matrix(0.996, -0.087, 0.087, 0.996, 1218.469, 879.868)" fill="#f8ceff"/><g transform="matrix(0.996, -0.087, 0.087, 0.996, 1117.204, 844.768)"><path d="M46.654,0A17,17,0,0,0,31.834,8.672,17,17,0,0,0,17.015,0C7.618,0,0,8.716,0,18.113,0,41.714,31.834,58.18,31.834,58.18S63.668,41.714,63.668,18.113C63.668,8.716,56.05,0,46.654,0Zm0,0" transform="translate(0 0)" fill="#ff5454"/><path d="M4.391,18.113c0-8.694,6.525-16.79,14.942-17.954A16.935,16.935,0,0,0,17.015,0C7.618,0,0,8.716,0,18.113,0,41.714,31.834,58.18,31.834,58.18s.823-.427,2.2-1.234C26.838,52.716,4.391,37.933,4.391,18.113Zm0,0" transform="translate(0 0)" fill="#f33"/></g></g></svg>