<svg xmlns="http://www.w3.org/2000/svg" xmlns:xlink="http://www.w3.org/1999/xlink" width="60.268" height="64.004" viewBox="0 0 60.268 64.004"><defs><radialGradient id="a" cx="-0.209" cy="1.286" r="3.259" gradientTransform="translate(-0.085) scale(1.171 1)" gradientUnits="objectBoundingBox"><stop offset="0" stop-color="#f9ed32"/><stop offset="0.36" stop-color="#ee2a7b"/><stop offset="0.44" stop-color="#d22a8a"/><stop offset="0.6" stop-color="#8b2ab2"/><stop offset="0.83" stop-color="#1b2af0"/><stop offset="0.88" stop-color="#002aff"/></radialGradient><radialGradient id="b" cx="-1.046" cy="2.345" r="7.65" gradientTransform="translate(-0.044) scale(1.088 1)" xlink:href="#a"/><radialGradient id="c" cx="0.075" cy="0.97" r="1.95" gradientTransform="translate(-0.086) scale(1.172 1)" xlink:href="#a"/></defs><g transform="translate(-1.862 0.005)"><path d="M46.55,53.65,36,47.89c5.13-.72,9.31-5.81,9.32-11.35L55.88,42.3C55.86,47.84,51.69,52.93,46.55,53.65Z" fill="#ed1c24"/><path d="M46.56,49.63,36,43.87a6.93,6.93,0,0,0,5.6-6.81l10.58,5.76A6.92,6.92,0,0,1,46.56,49.63Z" fill="#fff"/><path d="M55.88,42.3,45.29,36.54l.04-20.08,10.58,5.76Z" fill="#ed1c24"/><path d="M52.15,42.82,41.57,37.06l.03-20.08,10.59,5.77Z" fill="#fff"/><path d="M27.95,56.26,17.36,50.5l18.61-2.61,10.58,5.76Z" fill="#ed1c24"/><path d="M27.96,52.25,17.37,46.49l18.61-2.62,10.58,5.76Z" fill="#fff"/><path d="M26.68,40.5c5.82-.82,10.56-6.58,10.57-12.87l10.58,5.76c0,6.29-4.74,12-10.56,12.87Z" fill="#ed1c24"/><path d="M36.27,18.77a1.65,1.65,0,0,0,1,.17L46.61,24l1.24.68a1.57,1.57,0,0,1-1-.18Z" fill="#ed1c24"/><path d="M39.13,16.67a1.74,1.74,0,0,0-.87-1.58l10.59,5.76a1.72,1.72,0,0,1,.86,1.58L39.13,16.67l10.58,5.76a2.31,2.31,0,0,1-1.86,2.27L37.26,18.94a2.31,2.31,0,0,0,1.87-2.27Z" fill="#ed1c24"/><path d="M23.94,40.49a9.66,9.66,0,0,0,2.74,0l10.59,5.76a9.66,9.66,0,0,1-2.74,0Z" fill="#ed1c24"/><path d="M41,8.58l10.59,5.76a8.72,8.72,0,0,1,4.32,7.88L45.33,16.46A8.73,8.73,0,0,0,41,8.58Z" fill="#ed1c24"/><path d="M39,12.26,49.6,18a5.21,5.21,0,0,1,2.59,4.72L41.6,17A5.22,5.22,0,0,0,39,12.26Z" fill="#fff"/><path d="M38.26,15.09l10.59,5.76a1.58,1.58,0,0,0-1-.17L37.27,14.92a1.55,1.55,0,0,1,.99.17Z" fill="#fff"/><path d="M46.86,24.52,36.27,18.77a1.76,1.76,0,0,1-.86-1.58,2.3,2.3,0,0,1,1.86-2.27l10.59,5.76A2.32,2.32,0,0,0,46,23,1.74,1.74,0,0,0,46.86,24.52Z" fill="#fff"/><path d="M21.06,39.53a8.59,8.59,0,0,0,2.88,1l10.59,5.76a8.59,8.59,0,0,1-2.88-1Z" fill="#ed1c24"/><path d="M33.64,41.62,23.05,35.86a5.85,5.85,0,0,0,3.64.62l10.59,5.76a5.84,5.84,0,0,1-3.64-.62Z" fill="#fff"/><path d="M37.25,27.63a9.88,9.88,0,0,0-4.9-8.92l10.59,5.76a9.85,9.85,0,0,1,4.89,8.92Z" fill="#ed1c24"/><path d="M30.36,22.39,41,28.15a6.36,6.36,0,0,1,3.16,5.77c0,4.06-3.07,7.79-6.83,8.32L26.69,36.48c3.76-.53,6.83-4.26,6.84-8.32a6.38,6.38,0,0,0-3.17-5.77Z" fill="#fff"/><path d="M28.49,21.76a5.66,5.66,0,0,1,1.87.63L41,28.15a5.66,5.66,0,0,0-1.87-.63Z" fill="#ed1c24"/><path d="M25,51.73,14.39,46a4.82,4.82,0,0,0,3,.52L28,52.25A4.8,4.8,0,0,1,25,51.73Z" fill="#fff"/><path d="M26.72,21.76a6.17,6.17,0,0,1,1.77,0l10.59,5.76a6.24,6.24,0,0,0-1.78,0Z" fill="#ed1c24"/><path d="M32.35,18.71l10.59,5.76a9.08,9.08,0,0,0-5.63-1L26.72,17.74A9.07,9.07,0,0,1,32.35,18.71Z" fill="#fff"/><path d="M23.06,35.86a6.39,6.39,0,0,1-3.17-5.79l10.58,5.76a6.43,6.43,0,0,0,3.17,5.79Z" fill="#ed1c24"/><path d="M25,51.73,14.39,46a5.21,5.21,0,0,1-2.59-4.72L22.39,47A5.19,5.19,0,0,0,25,51.73Z" fill="#ed1c24"/><path d="M19.89,30.07c0-4.05,3.07-7.78,6.83-8.31L37.3,27.52c-3.75.53-6.82,4.26-6.83,8.31Z" fill="#ed1c24"/><path d="M31.65,45.29,21.06,39.53a9.84,9.84,0,0,1-4.89-8.93c0-6.28,4.74-12,10.55-12.86L37.31,23.5c-5.81.82-10.55,6.58-10.56,12.86a9.88,9.88,0,0,0,4.9,8.93Z" fill="#fff"/><path d="M46.62,17.51c3.08-.44,5.58,1.92,5.57,5.23V42.82a6.92,6.92,0,0,1-5.59,6.81L28,52.25c-3.08.43-5.58-1.92-5.57-5.24V26.93A6.93,6.93,0,0,1,28,20.12ZM37.27,46.26c5.82-.82,10.55-6.58,10.56-12.87s-4.7-10.7-10.52-9.89S26.76,30.08,26.75,36.36s4.71,10.71,10.52,9.9M47.85,24.7a2.31,2.31,0,0,0,1.86-2.27,1.64,1.64,0,0,0-1.85-1.75A2.32,2.32,0,0,0,46,23a1.65,1.65,0,0,0,1.86,1.75" fill="url(#a)"/><path d="M39,12.26,49.6,18a4.73,4.73,0,0,0-3-.51L36,11.75a4.73,4.73,0,0,1,3,.51Z" fill="#ed1c24"/><path d="M23,55.41,12.4,49.65a8,8,0,0,0,5,.85L28,56.26a7.94,7.94,0,0,1-5-.85Z" fill="#ed1c24"/><path d="M37.3,27.52c3.77-.53,6.82,2.34,6.81,6.4S41,41.71,37.28,42.24s-6.81-2.34-6.81-6.41A8.458,8.458,0,0,1,37.3,27.52Z" fill="url(#b)"/><path d="M23,55.41,12.4,49.65a8.71,8.71,0,0,1-4.32-7.88l10.59,5.76A8.71,8.71,0,0,0,23,55.41Z" fill="#fff"/><path d="M37.31,23.5c5.82-.81,10.54,3.62,10.52,9.89s-4.74,12-10.56,12.87-10.53-3.62-10.52-9.9S31.5,24.32,37.31,23.5Zm0,18.74c3.76-.53,6.83-4.26,6.83-8.32s-3-6.93-6.81-6.4-6.82,4.26-6.83,8.31,3.05,6.94,6.81,6.41" fill="#fff"/><path d="M28.02,20.12,17.43,14.36l18.6-2.61L46.62,17.5Z" fill="#ed1c24"/><path d="M22.39,47.01,11.8,41.25l.04-20.08,10.59,5.76Z" fill="#ed1c24"/><path d="M22.43,26.93,11.84,21.17a6.94,6.94,0,0,1,5.59-6.81L28,20.12A6.93,6.93,0,0,0,22.43,26.93Z" fill="#ed1c24"/><path d="M46.63,13.49c5.13-.72,9.29,3.2,9.28,8.73V42.3c0,5.54-4.19,10.63-9.33,11.35L28,56.26c-5.13.72-9.29-3.19-9.28-8.73V27.45c0-5.53,4.2-10.63,9.33-11.35Zm5.52,29.33V22.74c0-3.31-2.49-5.67-5.57-5.23L28,20.12a6.93,6.93,0,0,0-5.59,6.81V47.01c0,3.32,2.49,5.67,5.57,5.24l18.6-2.62a6.92,6.92,0,0,0,5.59-6.81" fill="#fff"/><ellipse cx="2.09" cy="1.79" rx="2.09" ry="1.79" transform="matrix(0.478, -0.878, 0.878, 0.478, 45.289, 23.673)" fill="#fff"/><path d="M41,8.58l10.59,5.76a7.94,7.94,0,0,0-5-.85L36,7.73A7.92,7.92,0,0,1,41,8.58Z" fill="#fff"/><path d="M28.02,16.1,17.44,10.34l18.6-2.61,10.59,5.76Z" fill="#fff"/><path d="M18.67,47.53,8.08,41.77l.04-20.08L18.7,27.45Z" fill="#fff"/><path d="M18.7,27.45,8.12,21.69c0-5.53,4.19-10.63,9.32-11.35L28,16.1C22.9,16.82,18.71,21.92,18.7,27.45Z" fill="#fff"/><path d="M47.52.88a7.45,7.45,0,0,0-4.64-.8L10.63,4.61c-4.8.68-8.69,5.41-8.7,10.6L1.87,50a8.11,8.11,0,0,0,4,7.35l10.58,5.76a8.14,8.14,0,0,1-4-7.35L12.52,21c0-5.18,3.9-9.91,8.7-10.59L53.47,5.84a7.42,7.42,0,0,1,4.63.8Z" fill="#bd005d"/><path d="M53.47,5.84c4.79-.67,8.67,3,8.66,8.15l-.06,34.8c0,5.18-3.91,9.92-8.7,10.6L21.12,63.92c-4.8.67-8.67-3-8.67-8.15L12.52,21c0-5.18,3.9-9.91,8.7-10.59ZM55.88,42.3V22.22c0-5.53-4.15-9.45-9.28-8.73L28,16.1c-5.13.72-9.32,5.82-9.33,11.35V47.53c0,5.54,4.15,9.45,9.28,8.73l18.6-2.61c5.14-.72,9.31-5.81,9.33-11.35" fill="url(#c)"/></g></svg>