<?xml version="1.0" encoding="UTF-8" standalone="no"?>
<svg
   xmlns:dc="http://purl.org/dc/elements/1.1/"
   xmlns:cc="http://creativecommons.org/ns#"
   xmlns:rdf="http://www.w3.org/1999/02/22-rdf-syntax-ns#"
   xmlns:svg="http://www.w3.org/2000/svg"
   xmlns="http://www.w3.org/2000/svg"
   height="131.25938"
   width="176.42169"
   version="1.1"
   viewBox="0 0 176.42169 131.25938"
   data-name="Layer 1"
   id="Layer_1">
  <metadata
     id="metadata43">
    <rdf:RDF>
      <cc:Work
         rdf:about="">
        <dc:format>image/svg+xml</dc:format>
        <dc:type
           rdf:resource="http://purl.org/dc/dcmitype/StillImage" />
        <dc:title>logo_lemonsky-official_2019b</dc:title>
      </cc:Work>
    </rdf:RDF>
  </metadata>
  <defs
     id="defs4">
    <style
       id="style2">.cls-1{fill:#ffca05;}.cls-2{fill:#00adee;}.cls-3{fill:#fff;}</style>
  </defs>
  <title
     id="title6">logo_lemonsky-official_2019b</title>
  <rect
     style="fill:#ffca05;stroke-width:0.71026421"
     y="0"
     id="rect8"
     height="80.529388"
     width="6.1300001"
     x="25.309999"
     class="cls-1" />
  <path
     style="fill:#ffca05"
     id="path10"
     d="m 51,74.899384 c -9.12,0 -15.24,-6.54 -15.24,-16.27 0,-10.26 6.06,-17.43 14.74,-17.43 10.27,0 13,9.31 13,14.8 a 8.14,8.14 0 0 1 -0.18,2.16 l -0.32,1.21 H 41.92 c 0.48,6.35 3.82,9.83 9.48,9.83 a 15.5,15.5 0 0 0 7.41,-1.49 l 1.64,-0.78 1.73,5.25 -1.17,0.64 c -1.16,0.63 -4.43,2.08 -10.01,2.08 z m 6.21,-21 a 8.88,8.88 0 0 0 -2.21,-5.28 6.53,6.53 0 0 0 -4.85,-1.79 c -5.09,0 -7,4.09 -7.81,7 h 14.87 z"
     class="cls-1" />
  <path
     style="fill:#ffca05"
     id="path12"
     d="m 105.15,74.289384 v -18.58 c 0,-5.89 -2,-8.87 -6,-8.87 -3,0 -5.28,2.39 -6.17,4.75 a 8.29,8.29 0 0 0 -0.34,2.3 v 20.4 h -6.19 v -19.93 c 0,-4.78 -2.06,-7.52 -5.65,-7.52 -3.31,0 -5.73,2.84 -6.57,5.47 a 8.5,8.5 0 0 0 -0.35,2.37 v 19.62 h -6.13 v -23.82 c 0,-2.84 -0.07,-4.77 -0.23,-6.89 l -0.14,-1.69 h 6 l 0.09,2.39 a 11.41,11.41 0 0 1 8.17,-3 10.22,10.22 0 0 1 8.62,4.61 12.33,12.33 0 0 1 1.89,-2 11.8,11.8 0 0 1 8,-2.73 c 1.86,0 11.16,0.69 11.16,14.25 v 18.84 h -6.12 z"
     class="cls-1" />
  <path
     style="fill:#ffca05"
     id="path14"
     d="m 130.19,74.969384 c -8.7,0 -15,-7 -15,-16.64 0,-11.24 7.76,-17.12 15.43,-17.12 8.95,0 15.19,6.84 15.19,16.63 0,11.77 -8.06,17.13 -15.55,17.13 z m 0.36,-28.13 c -6.38,0 -9.24,5.68 -9.24,11.31 0,6.37 3.86,11.17 9,11.17 5.35,0 9.38,-4.89 9.38,-11.36 -0.05,-4.47 -2.45,-11.12 -9.14,-11.12 z"
     class="cls-1" />
  <path
     style="fill:#ffca05"
     id="path16"
     d="m 170.17,74.289384 v -18.89 c 0,-3.91 -1.13,-8.56 -6.49,-8.56 a 7.77,7.77 0 0 0 -7.26,5.63 9,9 0 0 0 -0.28,2.09 v 19.74 H 150 v -23.82 c 0,-2.7 -0.07,-4.63 -0.25,-6.89 l -0.11,-1.7 h 6 l 0.09,2.52 a 13.21,13.21 0 0 1 8.72,-3.17 c 2,0 11.81,0.67 11.81,14 v 19.13 h -6.12 z"
     class="cls-1" />
  <path
     style="fill:#00adee"
     id="path18"
     d="m 9.43,118.07938 a 16,16 0 0 1 -8.27,-2.25 l -1.16,-0.72 2.29,-5.41 1.59,1 a 11.47,11.47 0 0 0 5.76,1.77 c 3.32,0 5.22,-1.43 5.22,-3.93 0,-2 -0.8,-3.39 -5.16,-5.15 -5.59,-2.13 -8.43,-5.319996 -8.43,-9.469996 0,-4.73 3.65,-9.52 10.62,-9.52 a 13.14,13.14 0 0 1 7.38,2.13 l 1.07,0.77 -2.43,5.33 -1.58,-1.11 a 8.39,8.39 0 0 0 -4.93,-1.49 c -3,0 -4.06,1.86 -4.06,3.45 0,1.77 0.76,2.72 5,4.49 4,1.58 8.53,4.169996 8.53,10.189996 0,6.02 -4.57,9.92 -11.44,9.92 z"
     class="cls-2" />
  <path
     style="fill:#00adee"
     id="path20"
     d="m 44,117.46938 -11.3,-14.49 -1.27,1.34 v 13.15 H 25.31 V 74.319384 h 6.13 v 22.22 l 11,-11.51 h 8 L 37,98.899384 51.64,117.47938 H 44 Z"
     class="cls-2" />
  <path
     style="fill:#00adee"
     id="path22"
     d="m 47.54,126.37938 1.87,-0.7 a 17.43,17.43 0 0 0 5.09,-3.17 21.31,21.31 0 0 0 4.5,-6.83 c 0.12,-0.31 0.2,-0.53 0.23,-0.65 a 6.76,6.76 0 0 0 -0.24,-0.71 L 47.25,85.029384 h 6.56 l 8.08,20.119996 c 0.24,0.62 0.48,1.29 0.73,2 0.24,-0.69 0.51,-1.41 0.79,-2.14 l 7.51,-19.999996 h 6.59 l -9.67,23.999996 c -3.77,9.71 -6.27,15 -10.28,18.47 a 19.44,19.44 0 0 1 -5.63,3.34 l -1.19,0.44 z"
     class="cls-2" />
  <path
     style="fill:#ffffff"
     id="path24"
     d="m 92.3,87.899384 -2.48,2.19 q -1.31,-1.82 -2.66,-1.82 a 1.62,1.62 0 0 0 -1.08,0.35 1,1 0 0 0 -0.42,0.79 1.36,1.36 0 0 0 0.3,0.84 22.82,22.82 0 0 0 2.45,2.26 q 1.92,1.6 2.32,2 a 7,7 0 0 1 1.44,2 4.9,4.9 0 0 1 0.43,2 4.7,4.7 0 0 1 -1.5,3.569996 5.46,5.46 0 0 1 -3.9,1.41 5.81,5.81 0 0 1 -3.27,-0.92 7.27,7.27 0 0 1 -2.39,-2.889996 l 2.81,-1.7 q 1.27,2.329996 2.92,2.329996 a 2.15,2.15 0 0 0 1.45,-0.499996 1.49,1.49 0 0 0 0.59,-1.16 2,2 0 0 0 -0.44,-1.2 12.79,12.79 0 0 0 -2,-1.83 19.73,19.73 0 0 1 -3.71,-3.62 4.59,4.59 0 0 1 -0.84,-2.54 4.15,4.15 0 0 1 1.39,-3.14 4.84,4.84 0 0 1 3.44,-1.31 5.42,5.42 0 0 1 2.51,0.61 9.13,9.13 0 0 1 2.64,2.28 z"
     class="cls-3" />
  <path
     style="fill:#ffffff"
     id="path26"
     d="m 93.46,85.479384 h 11.89 v 3.3 h -4.29 V 103.06938 H 97.64 V 88.779384 h -4.2 v -3.3 0 z"
     class="cls-3" />
  <path
     style="fill:#ffffff"
     id="path28"
     d="m 124.14,85.479384 h 4 a 13.06,13.06 0 0 1 5.7,1 7.42,7.42 0 0 1 3.07,3.09 10.83,10.83 0 0 1 0.53,8.73 7.74,7.74 0 0 1 -1.86,2.829996 6.57,6.57 0 0 1 -2.57,1.55 18.33,18.33 0 0 1 -4.8,0.43 h -4 V 85.479384 Z m 3.32,3.23 v 11.09 H 129 a 7.77,7.77 0 0 0 3.33,-0.53 4,4 0 0 0 1.67,-1.77 6.49,6.49 0 0 0 0.66,-3.06 5.83,5.83 0 0 0 -1.57,-4.34 q -1.41,-1.39 -4.53,-1.39 z"
     class="cls-3" />
  <path
     style="fill:#ffffff"
     id="path30"
     d="m 140.42,85.479384 h 3.32 v 17.589996 h -3.32 z"
     class="cls-3" />
  <path
     style="fill:#ffffff"
     id="path32"
     d="m 155.2,85.039384 a 8.73,8.73 0 0 1 6.42,2.7 9,9 0 0 1 2.69,6.59 8.89,8.89 0 0 1 -2.67,6.559996 9.18,9.18 0 0 1 -13,0 v 0 0 a 9.24,9.24 0 0 1 6.56,-15.849996 z m 0,3.28 a 5.52,5.52 0 0 0 -4.1,1.7 5.91,5.91 0 0 0 -1.66,4.32 5.62,5.62 0 0 0 2.09,4.61 5.74,5.74 0 0 0 3.73,1.329996 5.45,5.45 0 0 0 4.06,-1.719996 6.2,6.2 0 0 0 0,-8.49 5.5,5.5 0 0 0 -4.16,-1.76 v 0 z"
     class="cls-3" />
  <path
     style="fill:#ffffff"
     id="path34"
     d="m 176.07,87.899384 -2.43,2.2 q -1.31,-1.82 -2.66,-1.82 a 1.62,1.62 0 0 0 -1.08,0.35 1,1 0 0 0 -0.42,0.79 1.36,1.36 0 0 0 0.3,0.84 22.82,22.82 0 0 0 2.45,2.26 q 1.92,1.6 2.32,2 a 7,7 0 0 1 1.44,2 4.9,4.9 0 0 1 0.43,2 4.7,4.7 0 0 1 -1.5,3.569996 5.46,5.46 0 0 1 -3.9,1.41 5.81,5.81 0 0 1 -3.27,-0.92 7.27,7.27 0 0 1 -2.39,-2.889996 l 2.81,-1.7 q 1.27,2.329996 2.92,2.329996 a 2.15,2.15 0 0 0 1.45,-0.499996 1.49,1.49 0 0 0 0.59,-1.16 2,2 0 0 0 -0.44,-1.2 12.79,12.79 0 0 0 -2,-1.83 19.73,19.73 0 0 1 -3.69,-3.63 4.59,4.59 0 0 1 -0.84,-2.54 4.15,4.15 0 0 1 1.39,-3.14 4.84,4.84 0 0 1 3.44,-1.31 5.42,5.42 0 0 1 2.51,0.61 9.13,9.13 0 0 1 2.57,2.28 z"
     class="cls-3" />
  <path
     style="fill:#ffffff"
     id="path36"
     d="m 110.22,85.479384 v 11 a 3.66,3.66 0 0 0 7.32,0 v 0 -11 h 3.31 v 11 a 7,7 0 1 1 -13.94,0 v -11 z"
     class="cls-3" />
</svg>
