<svg xmlns="http://www.w3.org/2000/svg" width="60.268" height="64.003" viewBox="0 0 60.268 64.003"><g transform="translate(-1.862 0.005)"><path d="M48.06,53.65,37.48,47.89l7.87-1.1,10.59,5.76Z" fill="#007fb5"/><path d="M55.94,52.55,45.35,46.79l.03-16.99,10.59,5.76Z" fill="#007fb5"/><path d="M45.38,29.8c0-.29.52-4.46-2.19-7.31l10.58,5.76c2.71,2.85,2.23,7,2.2,7.31Z" fill="#007fb5"/><path d="M48.06,53.65,37.48,47.89l.03-15.8,10.58,5.76Z" fill="#fff"/><path d="M43.19,22.49a7.28,7.28,0,0,0-1.85-1.41l10.59,5.76a7.23,7.23,0,0,1,1.84,1.41l-5.29-2.88-1.39-.76-.68-.37-.68-.37-1.31-.71-.63-.34a5.76,5.76,0,0,1-.6-.33Z" fill="#007fb5"/><path d="M35.46,28.11l10.59,5.76a3.34,3.34,0,0,1,.73.53,4.67,4.67,0,0,1,1.31,3.45L37.51,32.1a4.72,4.72,0,0,0-1.32-3.46A3.7,3.7,0,0,0,35.46,28.11Z" fill="#fff"/><path d="M32.32,55.87,21.73,50.11l7-.99,10.58,5.76Z" fill="#007fb5"/><path d="M39.31,54.88,28.73,49.12l.02-14.41,10.59,5.76Z" fill="#007fb5"/><path d="M41.34,21.08l10.59,5.76A9.61,9.61,0,0,0,49.86,26a7.75,7.75,0,0,0-3.11-.19L36.16,20.08a7.64,7.64,0,0,1,3.12.2,9.21,9.21,0,0,1,2.06.8Z" fill="#fff"/><path d="M33.14,27.75a3.67,3.67,0,0,1,2.32.36l10.59,5.76a3.67,3.67,0,0,0-2.32-.36L33.14,27.75l10.59,5.76a4.23,4.23,0,0,0-2.65,1.77L30.49,29.52l10.59,5.76a8.41,8.41,0,0,0-1.74,5.19L28.75,34.71a8.47,8.47,0,0,1,1.74-5.19,4.26,4.26,0,0,1,2.65-1.77Z" fill="#007fb5"/><path d="M39.36,31,28.77,25.24l.01-3.49,10.58,5.76Z" fill="#007fb5"/><path d="M39.36,31,28.77,25.24c1.26-1.76,3.84-4.66,7.39-5.16l10.59,5.76C43.2,26.34,40.62,29.24,39.36,31Z" fill="#fff"/><path d="M19.41,57.68,8.83,51.92l7-.98L26.42,56.7Z" fill="#007fb5"/><path d="M32.37,28.49,21.78,22.73l7-.98,10.58,5.76Z" fill="#fff"/><path d="M26.42,56.7,15.83,50.94l.05-27.38,10.59,5.76Z" fill="#007fb5"/><path d="M26.47,29.32,26.42,56.7l-7.01.98.06-27.37Z" fill="#fff"/><path d="M19.41,57.68,8.83,51.92l.05-27.37,10.59,5.76Z" fill="#fff"/><path d="M19.47,30.31,8.88,24.55l7-.99,10.59,5.76Z" fill="#fff"/><path d="M10.06,19.88a3.69,3.69,0,0,0,2.32.4L23,26a3.72,3.72,0,0,1-2.33-.4Z" fill="#007fb5"/><path d="M16.77,14.94a4.09,4.09,0,0,0-2-3.7L25.33,17a4.06,4.06,0,0,1,2,3.7A5.42,5.42,0,0,1,23,26L12.38,20.28a5.44,5.44,0,0,0,4.39-5.34Z" fill="#007fb5"/><path d="M14.74,11.24,25.33,17A3.76,3.76,0,0,0,23,16.59L12.4,10.84A3.69,3.69,0,0,1,14.74,11.24Z" fill="#fff"/><path d="M20.64,25.64,10.06,19.88a4.1,4.1,0,0,1-2-3.71,5.42,5.42,0,0,1,4.38-5.33L23,16.59a5.44,5.44,0,0,0-4.38,5.34A4.12,4.12,0,0,0,20.64,25.64Z" fill="#fff"/><path d="M23,16.59a3.86,3.86,0,0,1,4.36,4.11A5.42,5.42,0,0,1,23,26a3.86,3.86,0,0,1-4.36-4.11A5.44,5.44,0,0,1,23,16.59Z" fill="#fff"/><path d="M53.47,5.84c4.79-.67,8.67,3,8.66,8.15l-.06,34.8c0,5.18-3.91,9.92-8.7,10.6L21.12,63.92c-4.8.67-8.67-3-8.67-8.15L12.52,21c0-5.18,3.9-9.91,8.7-10.59ZM56,35.56c0-.38.88-7.68-6.11-9.53a7.75,7.75,0,0,0-3.11-.19c-3.55.5-6.13,3.39-7.39,5.16V27.51l-7,1V55.89l7-1V40.48a8.41,8.41,0,0,1,1.74-5.19,4.23,4.23,0,0,1,2.65-1.77,3.51,3.51,0,0,1,3.05.89,4.67,4.67,0,0,1,1.31,3.45v15.8l7.88-1.1v-17M26.42,56.7V29.32l-7,1-.06,27.37,7-1M23,26a5.42,5.42,0,0,0,4.38-5.34A3.85,3.85,0,0,0,23,16.59a5.44,5.44,0,0,0-4.38,5.34A3.86,3.86,0,0,0,23,26" fill="#007fb5"/><path d="M46.75,25.84a7.75,7.75,0,0,1,3.11.19c7,1.85,6.15,9.15,6.11,9.53v17l-7.88,1.1V37.86a4.67,4.67,0,0,0-1.31-3.45,3.51,3.51,0,0,0-3.05-.89,4.23,4.23,0,0,0-2.65,1.77,8.41,8.41,0,0,0-1.74,5.19V54.89l-7,1V28.51l7-1V31C40.62,29.24,43.2,26.34,46.75,25.84Z" fill="#fff"/><path d="M47.52.88a7.45,7.45,0,0,0-4.64-.8L10.63,4.61c-4.8.68-8.69,5.41-8.7,10.6L1.87,50a8.11,8.11,0,0,0,4,7.35l10.58,5.76a8.14,8.14,0,0,1-4-7.35L12.52,21c0-5.18,3.9-9.91,8.7-10.59L53.47,5.84a7.42,7.42,0,0,1,4.63.8Z" fill="#0057a3"/></g></svg>