<?xml version="1.0" encoding="UTF-8" standalone="no"?>
<!-- Generator: Adobe Illustrator 19.0.0, SVG Export Plug-In . SVG Version: 6.00 Build 0)  -->

<svg
   xmlns:dc="http://purl.org/dc/elements/1.1/"
   xmlns:cc="http://creativecommons.org/ns#"
   xmlns:rdf="http://www.w3.org/1999/02/22-rdf-syntax-ns#"
   xmlns:svg="http://www.w3.org/2000/svg"
   xmlns="http://www.w3.org/2000/svg"
   xmlns:sodipodi="http://sodipodi.sourceforge.net/DTD/sodipodi-0.dtd"
   xmlns:inkscape="http://www.inkscape.org/namespaces/inkscape"
   version="1.1"
   id="Capa_1"
   x="0px"
   y="0px"
   viewBox="0 0 480.07 480.07"
   style="enable-background:new 0 0 480.07 480.07;"
   xml:space="preserve"
   sodipodi:docname="game-boy-advance.svg"
   inkscape:version="0.92.4 (5da689c313, 2019-01-14)"><metadata
   id="metadata73"><rdf:RDF><cc:Work
       rdf:about=""><dc:format>image/svg+xml</dc:format><dc:type
         rdf:resource="http://purl.org/dc/dcmitype/StillImage" /></cc:Work></rdf:RDF></metadata><defs
   id="defs71" /><sodipodi:namedview
   pagecolor="#ffffff"
   bordercolor="#666666"
   borderopacity="1"
   objecttolerance="10"
   gridtolerance="10"
   guidetolerance="10"
   inkscape:pageopacity="0"
   inkscape:pageshadow="2"
   inkscape:window-width="1804"
   inkscape:window-height="1248"
   id="namedview69"
   showgrid="false"
   inkscape:zoom="0.49159497"
   inkscape:cx="240.035"
   inkscape:cy="240.035"
   inkscape:window-x="0"
   inkscape:window-y="0"
   inkscape:window-maximized="0"
   inkscape:current-layer="Capa_1" />
<g
   id="g6"
   style="fill:#ffffff;fill-opacity:1">
	<g
   id="g4"
   style="fill:#ffffff;fill-opacity:1">
		<path
   d="M184.034,328.032h-32v-32c0-4.418-3.582-8-8-8h-32c-4.418,0-8,3.582-8,8v32h-32c-4.418,0-8,3.582-8,8v32    c0,4.418,3.582,8,8,8h32v32c0,4.418,3.582,8,8,8h32c4.418,0,8-3.582,8-8v-32h32c4.418,0,8-3.582,8-8v-32    C192.034,331.614,188.452,328.032,184.034,328.032z M176.034,360.032h-32c-4.418,0-8,3.582-8,8v32h-16v-32c0-4.418-3.582-8-8-8    h-32v-16h32c4.418,0,8-3.582,8-8v-32h16v32c0,4.418,3.582,8,8,8h32V360.032z"
   id="path2"
   style="fill:#ffffff;fill-opacity:1" />
	</g>
</g>
<g
   id="g12"
   style="fill:#ffffff;fill-opacity:1">
	<g
   id="g10"
   style="fill:#ffffff;fill-opacity:1">
		<path
   d="M479.234,337.416c-6.136-55.128-57.912-106.704-113.088-112.584c-4.686-0.517-9.397-0.784-14.112-0.8h-88v-32h-16v-16    c0-17.673-14.327-32-32-32h-40c-8.837,0-16-7.163-16-16s7.163-16,16-16h128c17.673,0,32-14.327,32-32s-14.327-32-32-32h-40    c-8.837,0-16-7.163-16-16v-32h-16v32c0,17.673,14.327,32,32,32h40c8.837,0,16,7.163,16,16s-7.163,16-16,16h-128    c-17.673,0-32,14.327-32,32s14.327,32,32,32h40c8.837,0,16,7.163,16,16v16h-16v32h-88c-4.72,0.011-9.437,0.278-14.128,0.8    c-55.2,5.92-106.944,57.496-113.064,112.624C-7.195,407.69,43.225,471.142,113.46,479.179c28.6,3.273,57.468-3.191,81.942-18.346    c10.537-6.898,22.581-11.154,35.112-12.408c6.19-0.489,12.407-0.511,18.6-0.064c12.729,1.231,24.967,5.536,35.664,12.544    c60.135,37.164,139.012,18.543,176.176-41.593C476.076,394.843,482.516,365.993,479.234,337.416z M232.034,208.032h16v16h-16    V208.032z M435.514,426.704c-36.169,40.456-96.148,49.138-142.304,20.6c-12.889-8.393-27.634-13.509-42.952-14.904    c-3.376-0.245-6.784-0.368-10.224-0.368c-3.64,0-7.2,0.152-10.784,0.432c-15.085,1.445-29.597,6.511-42.304,14.768    c-52.602,32.545-121.627,16.287-154.173-36.315c-13.249-21.414-18.895-46.668-16.027-71.685    c5.264-47.376,51.456-93.392,98.88-98.488c4.12-0.461,8.262-0.698,12.408-0.712h224c4.145,0.003,8.287,0.224,12.408,0.664    c47.416,5.096,93.6,51.112,98.88,98.488C467.094,371.001,456.959,402.899,435.514,426.704z"
   id="path8"
   style="fill:#ffffff;fill-opacity:1" />
	</g>
</g>
<g
   id="g18"
   style="fill:#ffffff;fill-opacity:1">
	<g
   id="g16"
   style="fill:#ffffff;fill-opacity:1">
		<path
   d="M352.034,272.032c-17.673,0-32,14.327-32,32c0,17.673,14.327,32,32,32c17.673,0,32-14.327,32-32    C384.034,286.359,369.707,272.032,352.034,272.032z M352.034,320.032c-8.837,0-16-7.163-16-16s7.163-16,16-16s16,7.163,16,16    S360.87,320.032,352.034,320.032z"
   id="path14"
   style="fill:#ffffff;fill-opacity:1" />
	</g>
</g>
<g
   id="g24"
   style="fill:#ffffff;fill-opacity:1">
	<g
   id="g22"
   style="fill:#ffffff;fill-opacity:1">
		<path
   d="M352.034,368.032c-17.673,0-32,14.327-32,32c0,17.673,14.327,32,32,32c17.673,0,32-14.327,32-32    C384.034,382.359,369.707,368.032,352.034,368.032z M352.034,416.032c-8.837,0-16-7.163-16-16s7.163-16,16-16s16,7.163,16,16    S360.87,416.032,352.034,416.032z"
   id="path20"
   style="fill:#ffffff;fill-opacity:1" />
	</g>
</g>
<g
   id="g30"
   style="fill:#ffffff;fill-opacity:1">
	<g
   id="g28"
   style="fill:#ffffff;fill-opacity:1">
		<path
   d="M296.034,320.032c-17.673,0-32,14.327-32,32c0,17.673,14.327,32,32,32c17.673,0,32-14.327,32-32    C328.034,334.359,313.707,320.032,296.034,320.032z M296.034,368.032c-8.837,0-16-7.163-16-16s7.163-16,16-16s16,7.163,16,16    S304.87,368.032,296.034,368.032z"
   id="path26"
   style="fill:#ffffff;fill-opacity:1" />
	</g>
</g>
<g
   id="g36"
   style="fill:#ffffff;fill-opacity:1">
	<g
   id="g34"
   style="fill:#ffffff;fill-opacity:1">
		<path
   d="M408.034,320.032c-17.673,0-32,14.327-32,32c0,17.673,14.327,32,32,32c17.673,0,32-14.327,32-32    C440.034,334.359,425.707,320.032,408.034,320.032z M408.034,368.032c-8.837,0-16-7.163-16-16s7.163-16,16-16s16,7.163,16,16    S416.87,368.032,408.034,368.032z"
   id="path32"
   style="fill:#ffffff;fill-opacity:1" />
	</g>
</g>
<g
   id="g38"
   style="fill:#ffffff;fill-opacity:1">
</g>
<g
   id="g40"
   style="fill:#ffffff;fill-opacity:1">
</g>
<g
   id="g42"
   style="fill:#ffffff;fill-opacity:1">
</g>
<g
   id="g44"
   style="fill:#ffffff;fill-opacity:1">
</g>
<g
   id="g46"
   style="fill:#ffffff;fill-opacity:1">
</g>
<g
   id="g48"
   style="fill:#ffffff;fill-opacity:1">
</g>
<g
   id="g50"
   style="fill:#ffffff;fill-opacity:1">
</g>
<g
   id="g52"
   style="fill:#ffffff;fill-opacity:1">
</g>
<g
   id="g54"
   style="fill:#ffffff;fill-opacity:1">
</g>
<g
   id="g56"
   style="fill:#ffffff;fill-opacity:1">
</g>
<g
   id="g58"
   style="fill:#ffffff;fill-opacity:1">
</g>
<g
   id="g60"
   style="fill:#ffffff;fill-opacity:1">
</g>
<g
   id="g62"
   style="fill:#ffffff;fill-opacity:1">
</g>
<g
   id="g64"
   style="fill:#ffffff;fill-opacity:1">
</g>
<g
   id="g66"
   style="fill:#ffffff;fill-opacity:1">
</g>
</svg>